# xmcd
#
# Track frame offsets:
#	150
#	13160
#	22535
#	41335
#	51915
#	68025
#	79437
#	94162
#	115607
#	130882
#
# Disc length: 1926
#
# Revision: 2
# Processed by: cddbd v1.5.1PL0 Copyright (c) Steve Scherf et al.
# Submitted via: DiscPlay 4.0.3
# Normalized: r1:DSETVAR1
#
DISCID=7607840a
DTITLE=Various Artist - New Country  Vol 4  No. 11 September 1997
DYEAR=1900
DGENRE=
TTITLE0=Travis County Pickin' - Liar's Poker
TTITLE1=Patsy Cline - Bill Bailey, Won't You Please Come Home
TTITLE2=Big Sandy And His Fly-Rite Boys - I'm Gonna Leave
TTITLE3=George Jones and Melba Montgomery - Once More
TTITLE4=Jones And Leva - The Back of Your Hand
TTITLE5=Rob Ickes - Down in the Hole
TTITLE6=Ricky Van Shelton - She Needs Me
TTITLE7=The Steaks - Still a Little
TTITLE8=Chris Thile - The Road to Wrigley
TTITLE9=Derailers - California Angel
EXTD=
EXTT0=
EXTT1=
EXTT2=
EXTT3=
EXTT4=
EXTT5=
EXTT6=
EXTT7=
EXTT8=
EXTT9=
PLAYORDER=
